<svg width="16" height="15" viewBox="0 0 16 15" fill="none" xmlns="http://www.w3.org/2000/svg">
<path d="M0.688002 2.976C0.688002 2.04267 1.612 1.37067 3.46 0.96C3.908 2.17333 4.75734 3.83467 6.008 5.944C7.27733 8.05333 8.04267 9.37867 8.304 9.92C8.56534 9.39733 9.33067 8.06267 10.6 5.916C11.888 3.788 12.7373 2.136 13.148 0.96C14.996 1.37067 15.92 2.04267 15.92 2.976C15.92 3.72267 15.6027 4.61867 14.968 5.664C14.3333 6.70933 13.4747 8.00667 12.392 9.556C11.328 11.1053 10.4787 12.5333 9.844 13.84C9.32133 14.2133 8.78 14.4 8.22 14.4C7.66 14.4 7.17467 14.2133 6.764 13.84C6.12934 12.5333 5.27067 11.1053 4.188 9.556C3.124 8.00667 2.27467 6.70933 1.64 5.664C1.00534 4.61867 0.688002 3.72267 0.688002 2.976Z" fill="white"/>
</svg>
